<svg width="80" height="80" viewBox="0 0 80 80" fill="none" xmlns="http://www.w3.org/2000/svg">
<path d="M77.2767 42.3979V60.7714C77.2767 62.539 75.8339 63.9819 74.0663 63.9819H53.1194V42.3979H77.2767Z" fill="#AAEAEE"/>
<path d="M53.1194 48.0615H71.6131V63.982H53.1194V48.0615Z" fill="#49D3CC"/>
<path d="M77.2709 42.3978V31.6101C77.2709 29.837 75.8335 28.3997 74.0604 28.3997H53.123V42.3978H77.2709Z" fill="#F4F1FF"/>
<path d="M2.71875 49.2616V60.7658C2.71875 62.539 4.15609 63.9763 5.92922 63.9763H53.1231V49.2615L2.71875 49.2616Z" fill="#AAEAEE"/>
<path d="M53.1192 15.3549V49.2641H2.72437V15.3549C2.72437 11.7596 5.63437 8.84961 9.22968 8.84961H46.6139C50.2094 8.84961 53.1192 11.7595 53.1192 15.3549Z" fill="#AAEAEE"/>
<path d="M43.9084 24.5776V49.2641H2.72437V18.0603H37.3911C40.9864 18.0603 43.9084 20.9822 43.9084 24.5776Z" fill="#49D3CC"/>
<path d="M20.7596 19.3212V8.84521H35.0821V19.3212C35.0821 21.6343 33.207 23.5093 30.894 23.5093H24.9477C22.6348 23.5093 20.7596 21.6343 20.7596 19.3212ZM26.2102 64.6886C26.2102 68.2618 23.3207 71.1515 19.7577 71.1515C16.1948 71.1515 13.2949 68.2618 13.2949 64.6886C13.2949 61.1258 16.1949 58.2362 19.7577 58.2362C23.3205 58.2362 26.2102 61.1258 26.2102 64.6886ZM71.6546 64.6886C71.6546 68.2618 68.7651 71.1515 65.2021 71.1515C61.6391 71.1515 58.7393 68.2618 58.7393 64.6886C58.7393 61.1258 61.6393 58.2362 65.2021 58.2362C68.7649 58.2362 71.6546 61.1258 71.6546 64.6886Z" fill="#F4F1FF"/>
<path d="M74.0598 27.1972H54.3215V15.3547C54.3215 11.105 50.8632 7.64739 46.6135 7.64739C32.5618 7.64489 21.8121 7.64723 9.22945 7.64739C4.97977 7.64739 1.52148 11.105 1.52148 15.3547V33.9686C1.52148 34.6327 2.0593 35.1711 2.72398 35.1711C3.38867 35.1711 3.92648 34.6327 3.92648 33.9686V15.3547C3.92648 12.4308 6.30555 10.0524 9.22945 10.0524H19.5571V19.3214C19.5571 22.2935 21.9762 24.7119 24.9482 24.7119H30.8935C33.8656 24.7119 36.2846 22.2935 36.2846 19.3214V10.0524H46.6135C49.5374 10.0524 51.9165 12.4308 51.9165 15.3547V48.0618H3.92648V40.8588C3.92648 40.1947 3.38867 39.6563 2.72398 39.6563C2.0593 39.6563 1.52148 40.1947 1.52148 40.8588V60.7714C1.52148 63.2046 3.50133 65.1844 5.93445 65.1844H12.1174C12.3748 69.18 15.6979 72.3539 19.7579 72.3539C23.8124 72.3539 27.1309 69.18 27.3879 65.1844H57.5616C57.819 69.18 61.1421 72.3539 65.2021 72.3539C69.2566 72.3539 72.5751 69.18 72.8321 65.1844H74.0654C76.4985 65.1844 78.4784 63.2046 78.4784 60.7714V31.6119C78.4785 29.1608 76.4795 27.1972 74.0598 27.1972ZM33.8798 19.3214C33.8798 20.9677 32.5399 22.3071 30.8937 22.3071H24.9484C23.3021 22.3071 21.9623 20.9679 21.9623 19.3214V10.0524H33.8799L33.8798 19.3214ZM54.3251 29.6039H74.0657C75.1741 29.6039 76.0679 30.5102 76.0679 31.6102V41.1952H54.3251V29.6039ZM3.92648 60.7714V50.4666H51.9166V62.7794H27.1623C26.3107 59.481 23.3191 57.0336 19.758 57.0336C16.192 57.0336 13.1963 59.481 12.3435 62.7794H5.93445C4.82711 62.7794 3.92648 61.8788 3.92648 60.7714ZM19.758 69.9489C16.8576 69.9489 14.4973 67.5893 14.4973 64.6888C14.4973 61.7936 16.8576 59.4386 19.758 59.4386C22.6526 59.4386 25.0082 61.7936 25.0082 64.6888C25.0082 67.5893 22.6526 69.9489 19.758 69.9489ZM65.2023 69.9489C62.3018 69.9489 59.9415 67.5893 59.9415 64.6888C59.9415 61.7936 62.3018 59.4386 65.2023 59.4386C68.0968 59.4386 70.4524 61.7936 70.4524 64.6888C70.4524 67.5893 68.0968 69.9489 65.2023 69.9489ZM74.0657 62.7794H72.6067C71.7551 59.481 68.7635 57.0336 65.2024 57.0336C61.6363 57.0336 58.6407 59.481 57.7879 62.7794H54.3216V43.6H76.0738V60.7714C76.0737 61.8788 75.173 62.7794 74.0657 62.7794Z" fill="#215250"/>
<path d="M58.7391 48.0593C58.5812 48.0593 58.4248 48.0904 58.2789 48.1508C58.133 48.2112 58.0004 48.2998 57.8887 48.4114C57.7771 48.5231 57.6885 48.6557 57.6281 48.8016C57.5677 48.9475 57.5366 49.1039 57.5366 49.2618V51.9773C57.5366 52.6414 58.0744 53.1798 58.7391 53.1798C59.4038 53.1798 59.9416 52.6414 59.9416 51.9773V49.2618C59.9416 49.1039 59.9105 48.9475 59.8501 48.8016C59.7897 48.6557 59.7011 48.5232 59.5895 48.4115C59.4778 48.2998 59.3452 48.2112 59.1993 48.1508C59.0534 48.0904 58.897 48.0593 58.7391 48.0593Z" fill="#215250"/>
</svg>
