<svg width="80" height="80" viewBox="0 0 80 80" fill="none" xmlns="http://www.w3.org/2000/svg">
<path d="M75.0839 24.6709V76.368H4.91699V24.6709L40.0004 3.6322L75.0839 24.6709Z" fill="#AAEAEE"/>
<path d="M65.9283 33.8153V76.3681H4.91699V28.3264L30.8448 12.7765L65.9283 33.8153Z" fill="#49D3CC"/>
<path d="M15.6943 35.8647H64.2954V76.3641H15.6943V35.8647Z" fill="#F4F1FF"/>
<path d="M54.3167 53.1451V72.5541C54.3167 74.6591 52.6077 76.3679 50.5029 76.3679H29.4867C27.3817 76.3679 25.6729 74.6589 25.6729 72.5541V53.1451C25.6729 51.0401 27.3818 49.3424 29.4867 49.3424H50.5027C52.6077 49.3426 54.3167 51.0401 54.3167 53.1451Z" fill="#AAEAEE"/>
<path d="M47.5829 59.8789V76.3681H29.4867C27.3817 76.3681 25.6729 74.6591 25.6729 72.5542V56.0649H43.7804C45.8854 56.0649 47.5829 57.7739 47.5829 59.8789Z" fill="#49D3CC"/>
<path d="M43.6534 49.3391V57.6704L39.9952 55.9024L36.3369 57.6704V49.3391H43.6534Z" fill="#F4F1FF"/>
<path d="M75.6658 23.7007L40.5825 2.66159C40.4066 2.55586 40.2053 2.5 40 2.5C39.7948 2.5 39.5935 2.55586 39.4176 2.66159L4.33418 23.7007C4.16666 23.8013 4.02802 23.9435 3.93177 24.1136C3.83552 24.2836 3.78492 24.4756 3.78491 24.671V76.3683C3.78482 76.517 3.81402 76.6642 3.87087 76.8016C3.92771 76.9389 4.01107 77.0637 4.11618 77.1688C4.2213 77.2739 4.3461 77.3573 4.48346 77.4141C4.62081 77.471 4.76803 77.5002 4.91668 77.5001H75.0835C75.2322 77.5002 75.3794 77.471 75.5168 77.4141C75.6541 77.3573 75.7789 77.2739 75.884 77.1688C75.9892 77.0637 76.0725 76.9389 76.1294 76.8016C76.1862 76.6642 76.2154 76.517 76.2153 76.3683V57.5027C76.2153 56.8771 75.7091 56.3709 75.0835 56.3709C74.458 56.3709 73.9518 56.8771 73.9518 57.5027V75.2367H65.4274V35.8646C65.4274 35.716 65.3982 35.5688 65.3413 35.4314C65.2844 35.2941 65.2011 35.1693 65.096 35.0642C64.9909 34.9591 64.8661 34.8758 64.7287 34.8189C64.5914 34.762 64.4442 34.7328 64.2956 34.7328H15.6945C15.5459 34.7328 15.3987 34.762 15.2613 34.8189C15.124 34.8758 14.9992 34.9591 14.8941 35.0642C14.789 35.1693 14.7057 35.2941 14.6488 35.4314C14.5919 35.5688 14.5627 35.716 14.5627 35.8646V75.2367H6.0483V25.3121L40 4.95159L73.9516 25.3121V51.0284C73.9516 51.654 74.4578 52.1602 75.0834 52.1602C75.709 52.1602 76.2152 51.654 76.2152 51.0284V24.671C76.2151 24.4756 76.1645 24.2836 76.0682 24.1136C75.9719 23.9436 75.8333 23.8013 75.6658 23.7007ZM26.8083 72.5554V53.1481C26.8083 51.6727 28.0097 50.4714 29.4851 50.4714H35.2045V57.6707C35.2045 58.5021 36.0739 59.0508 36.8292 58.6896L39.9945 57.1589L43.1598 58.6896C43.9163 59.0518 44.7845 58.5002 44.7845 57.6707V50.4714H50.505C51.9804 50.4714 53.1818 51.6727 53.1818 53.1481V72.5554C53.1818 74.0308 51.9804 75.2321 50.505 75.2321H29.4851C28.0097 75.2323 26.8083 74.0308 26.8083 72.5554ZM37.4679 50.4714H42.5209V55.867L40.4873 54.8833C40.3336 54.8091 40.1651 54.7706 39.9944 54.7706C39.8237 54.7706 39.6552 54.8091 39.5014 54.8833L37.4679 55.867V50.4714ZM63.1638 36.9956V75.2321H54.6457C55.1469 74.4595 55.4451 73.543 55.4451 72.5554V53.1481C55.4451 50.4239 53.2293 48.2078 50.5048 48.2078H29.4851C26.7608 48.2078 24.5448 50.4237 24.5448 53.1481V72.5554C24.5448 73.543 24.843 74.4595 25.3442 75.2321H16.8261V36.9956H63.1638Z" fill="#215250"/>
</svg>
