<svg width="80" height="80" viewBox="0 0 80 80" fill="none" xmlns="http://www.w3.org/2000/svg">
<path d="M37.3581 49.1963V72.6682C37.3581 75.2172 35.3018 77.2735 32.7526 77.2735H7.33276C4.78355 77.2735 2.72729 75.2172 2.72729 72.6682V49.1963C2.72729 46.6469 4.78355 44.5908 7.33276 44.5908H32.7526C35.302 44.5908 37.3581 46.6471 37.3581 49.1963ZM77.2795 7.33878V30.8107C77.2795 33.3599 75.2114 35.416 72.6621 35.416H47.2423C44.6931 35.416 42.6368 33.3599 42.6368 30.8107V7.33878C42.6368 4.78956 44.6931 2.72144 47.2423 2.72144H72.6621C75.2114 2.72144 77.2795 4.78972 77.2795 7.33878Z" fill="#AAEAEE"/>
<path d="M24.4662 44.589V54.6668L20.0412 52.5281L15.6162 54.6668V44.589H24.4662Z" fill="#F4F1FF"/>
<path d="M28.7125 57.8419V77.2736H7.33276C4.78355 77.2736 2.72729 75.2174 2.72729 72.6683V53.2364H24.107C26.6564 53.2364 28.7125 55.2927 28.7125 57.8419ZM68.6339 15.9724V35.4161H47.2423C44.6931 35.4161 42.6368 33.36 42.6368 30.8108V11.3671H64.0285C66.5657 11.3671 68.6339 13.4353 68.6339 15.9724Z" fill="#49D3CC"/>
<path d="M64.3792 2.72681V12.8046L59.954 10.6659L55.5291 12.8046V2.72681H64.3792Z" fill="#F4F1FF"/>
<path d="M32.753 43.3883C30.5724 43.3847 7.6902 43.3883 7.33238 43.3883C4.1302 43.3883 1.52441 45.9941 1.52441 49.1963V58.9838C1.52441 59.6485 2.06223 60.1863 2.72691 60.1863C3.3916 60.1863 3.92941 59.6485 3.92941 58.9838V49.1963C3.92941 47.3197 5.45598 45.7933 7.33238 45.7933H14.4132V54.6661C14.4132 55.546 15.3325 56.1338 16.1382 55.7488L20.0414 53.8628L23.9424 55.7488C24.7461 56.1336 25.6686 55.5475 25.6686 54.6661V45.7933H32.753C34.6296 45.7933 36.156 47.3199 36.156 49.1963V72.6688C36.156 74.5441 34.6294 76.0707 32.753 76.0707H7.33238C5.45582 76.0707 3.92941 74.5441 3.92941 72.6688V65.8744C3.92941 65.2097 3.3916 64.6719 2.72691 64.6719C2.06223 64.6719 1.52441 65.2097 1.52441 65.8744V72.6688C1.52441 75.871 4.1302 78.4755 7.33238 78.4755H32.753C35.9552 78.4755 38.561 75.871 38.561 72.6688V49.1963C38.561 45.9941 35.9552 43.3883 32.753 43.3883ZM23.2638 52.7497L20.5654 51.445C20.4022 51.3662 20.2234 51.3253 20.0422 51.3253C19.8611 51.3253 19.6822 51.3662 19.5191 51.445L16.8183 52.7497V45.7933H23.2639V52.7497H23.2638ZM72.6664 1.52441H47.2411C44.0377 1.52441 41.4321 4.1302 41.4321 7.33348V30.8096C41.4321 34.013 44.0378 36.6186 47.2411 36.6186H72.6664C75.8699 36.6186 78.4755 34.0129 78.4755 30.8096V7.33363C78.4757 4.1302 75.8699 1.52441 72.6664 1.52441ZM63.176 3.92941V10.8882L60.4775 9.58348C60.3119 9.50363 60.1322 9.46363 59.9538 9.46363C59.7754 9.46363 59.5957 9.50363 59.43 9.58348L56.7316 10.8882V3.92941H63.176ZM76.0707 30.8096C76.0707 32.6872 74.5441 34.2138 72.6664 34.2138H47.2411C45.3635 34.2138 43.8369 32.6872 43.8369 30.8096V7.33363C43.8369 5.45598 45.3635 3.92941 47.2411 3.92941H54.3268V12.8046C54.3268 13.6807 55.2408 14.273 56.053 13.8872L59.9539 12.0013L63.8549 13.8872C64.6586 14.2721 65.5811 13.686 65.5811 12.8046V3.92941H72.6668C74.5444 3.92941 76.071 5.45598 76.071 7.33363V30.8096H76.0707ZM59.9538 43.386C59.7958 43.3859 59.6394 43.4169 59.4935 43.4773C59.3475 43.5377 59.2149 43.6263 59.1033 43.7379C58.9916 43.8496 58.903 43.9822 58.8426 44.1282C58.7822 44.2741 58.7512 44.4305 58.7513 44.5885V58.7725H46.8394C46.1747 58.7725 45.6369 59.3103 45.6369 59.975C45.6369 60.6397 46.1747 61.1775 46.8394 61.1775H59.9536C60.1116 61.1776 60.268 61.1466 60.4139 61.0862C60.5599 61.0258 60.6925 60.9372 60.8042 60.8256C60.9158 60.7139 61.0044 60.5813 61.0648 60.4353C61.1252 60.2894 61.1562 60.133 61.1561 59.975V44.5886C61.1563 44.4307 61.1253 44.2743 61.0649 44.1283C61.0045 43.9823 60.916 43.8497 60.8043 43.738C60.6926 43.6263 60.56 43.5377 60.4141 43.4773C60.2682 43.4169 60.1117 43.3859 59.9538 43.386Z" fill="#215250"/>
</svg>
