<svg width="16" height="16" viewBox="0 0 16 16" fill="none" xmlns="http://www.w3.org/2000/svg">
<path d="M2.66659 13.3332C2.29992 13.3332 1.98614 13.2027 1.72525 12.9418C1.46436 12.6809 1.3337 12.3669 1.33325 11.9998V3.99984C1.33325 3.63317 1.46392 3.31939 1.72525 3.0585C1.98659 2.79761 2.30036 2.66695 2.66659 2.6665H13.3333C13.6999 2.6665 14.0139 2.79717 14.2753 3.0585C14.5366 3.31984 14.667 3.63362 14.6666 3.99984V11.9998C14.6666 12.3665 14.5361 12.6805 14.2753 12.9418C14.0144 13.2032 13.7004 13.3336 13.3333 13.3332H2.66659ZM7.99992 8.6665L13.3333 5.33317V3.99984L7.99992 7.33317L2.66659 3.99984V5.33317L7.99992 8.6665Z" fill="#F4F1FF"/>
</svg>
