<svg width="16" height="16" viewBox="0 0 16 16" fill="none" xmlns="http://www.w3.org/2000/svg">
<path fill-rule="evenodd" clip-rule="evenodd" d="M7.99984 1.33331C5.0545 1.33331 2.6665 4.00198 2.6665 6.99998C2.6665 9.97465 4.3685 13.208 7.0245 14.4493C7.32978 14.5923 7.66275 14.6664 7.99984 14.6664C8.33693 14.6664 8.66989 14.5923 8.97517 14.4493C11.6312 13.208 13.3332 9.97465 13.3332 6.99998C13.3332 4.00198 10.9452 1.33331 7.99984 1.33331ZM7.99984 7.99998C8.35346 7.99998 8.6926 7.8595 8.94265 7.60945C9.19269 7.35941 9.33317 7.02027 9.33317 6.66665C9.33317 6.31302 9.19269 5.97389 8.94265 5.72384C8.6926 5.47379 8.35346 5.33331 7.99984 5.33331C7.64622 5.33331 7.30708 5.47379 7.05703 5.72384C6.80698 5.97389 6.6665 6.31302 6.6665 6.66665C6.6665 7.02027 6.80698 7.35941 7.05703 7.60945C7.30708 7.8595 7.64622 7.99998 7.99984 7.99998Z" fill="#1E1E1E"/>
</svg>
