<svg width="80" height="80" viewBox="0 0 80 80" fill="none" xmlns="http://www.w3.org/2000/svg">
<path d="M65.3059 36.8347V62.7475C65.3059 65.5613 63.0212 67.8339 60.2075 67.8339H32.1423C29.3286 67.8339 27.0559 65.5613 27.0559 62.7475V36.8347C27.0559 34.0209 29.3286 31.7483 32.1423 31.7483H60.2076C63.0212 31.7483 65.3059 34.0209 65.3059 36.8347Z" fill="#AAEAEE"/>
<path d="M56.8167 45.312V67.8339H32.1423C29.3286 67.8339 27.0559 65.5612 27.0559 62.7475V40.2256H51.7301C54.532 40.2256 56.8167 42.5103 56.8167 45.312Z" fill="#49D3CC"/>
<path d="M51.0631 31.7441V42.8712L46.1773 40.5099L41.2915 42.8712V31.7441H51.0631Z" fill="#F4F1FF"/>
<path d="M22.6454 77.2787C27.8596 77.2787 32.0865 73.0518 32.0865 67.8376C32.0865 62.6234 27.8596 58.3965 22.6454 58.3965C17.4313 58.3965 13.2043 62.6234 13.2043 67.8376C13.2043 73.0518 17.4313 77.2787 22.6454 77.2787Z" fill="#F4F1FF"/>
<path d="M62.6201 78.4811C62.778 78.4812 62.9344 78.4502 63.0804 78.3898C63.2263 78.3294 63.3589 78.2409 63.4706 78.1292C63.5823 78.0175 63.6709 77.8849 63.7313 77.7389C63.7917 77.593 63.8227 77.4366 63.8226 77.2786V69.0365H70.6568C71.3215 69.0365 71.8593 68.4986 71.8593 67.834C71.8593 67.1693 71.3215 66.6315 70.6568 66.6315H65.1241C65.977 65.5583 66.5081 64.2199 66.5081 62.7469V55.6532C66.5081 54.9885 65.9702 54.4507 65.3056 54.4507C64.6409 54.4507 64.1031 54.9885 64.1031 55.6532V62.7469C64.1031 64.8888 62.3557 66.6315 60.2081 66.6315H33.2159C32.8415 63.3305 30.9498 60.4907 28.2587 58.811V36.8346C28.2587 34.6927 30.0013 32.9507 32.142 32.9507H40.0895V42.8715C40.0895 43.7546 41.0126 44.3386 41.8157 43.9541L46.177 41.8451L50.5393 43.9541C51.3393 44.3391 52.2656 43.7566 52.2656 42.8715V32.9507H60.2084C62.3562 32.9507 64.1034 34.6927 64.1034 36.8346V48.7757C64.1034 49.4404 64.6412 49.9782 65.3059 49.9782C65.9706 49.9782 66.5084 49.4404 66.5084 48.7757V36.8346C66.5084 33.3669 63.682 30.5458 60.2084 30.5458C57.7756 30.5394 32.5443 30.5457 32.1421 30.5458C28.6745 30.5458 25.8538 33.3671 25.8538 36.8346V57.6905C24.9209 57.3949 23.9312 57.2326 22.9076 57.2074V2.7213C22.9076 2.56337 22.8766 2.40699 22.8161 2.26107C22.7557 2.11516 22.6671 1.98258 22.5555 1.87091C22.4438 1.75924 22.3112 1.67067 22.1653 1.61025C22.0194 1.54983 21.863 1.51876 21.7051 1.5188H9.34337C8.67868 1.5188 8.14087 2.05724 8.14087 2.7213C8.14087 3.38536 8.67868 3.9238 9.34337 3.9238H20.5024V57.4108C15.6571 58.4054 12.0018 62.7024 12.0018 67.8375C12.0018 73.7066 16.7763 78.4811 22.6454 78.4811C28.1087 78.4811 32.6185 74.3424 33.2168 69.0365H61.4176V77.2786C61.4175 77.4366 61.4485 77.593 61.5089 77.7389C61.5693 77.8849 61.6579 78.0175 61.7696 78.1292C61.8812 78.2409 62.0138 78.3294 62.1598 78.3898C62.3057 78.4502 62.4621 78.4812 62.6201 78.4811ZM49.8604 40.955L46.7004 39.4274C46.5371 39.3486 46.358 39.3076 46.1767 39.3076C45.9953 39.3076 45.8162 39.3486 45.6529 39.4274L42.4942 40.955V32.9507H49.8604V40.955ZM22.6456 76.0763C18.1023 76.0763 14.4068 72.3808 14.4068 67.8375C14.4068 63.2943 18.1023 59.5988 22.6456 59.5988C27.1815 59.5988 30.8713 63.2827 30.8832 67.816C30.8832 67.8222 30.8796 67.8275 30.8796 67.834C30.8796 67.8408 30.8834 67.8465 30.8835 67.8533C30.8748 72.3893 27.1834 76.0763 22.6456 76.0763Z" fill="#215250"/>
</svg>
