<svg width="80" height="80" viewBox="0 0 80 80" fill="none" xmlns="http://www.w3.org/2000/svg">
<path d="M35.288 8.77538H44.7124V20.3983H35.288V8.77538ZM49.8175 5.75085C49.8175 4.08054 48.4635 2.72632 46.793 2.72632H33.2074C31.5371 2.72632 30.1829 4.08038 30.1829 5.75085C30.1829 7.42116 31.5369 8.77538 33.2074 8.77538H46.793C48.4633 8.77538 49.8175 7.42132 49.8175 5.75085Z" fill="#AAEAEE"/>
<path d="M70.1962 47.0754C70.1962 63.7618 56.6794 77.2785 40.0073 77.2785C23.3209 77.2785 9.8042 63.7618 9.8042 47.0754C9.8042 30.4032 23.3211 16.8865 40.0073 16.8865C56.6794 16.8865 70.1962 30.4032 70.1962 47.0754Z" fill="#F4F1FF"/>
<path d="M61.7825 47.0796C61.7825 55.8696 56.588 63.4331 49.0966 66.872C46.3308 68.1585 43.2527 68.8681 40.006 68.8681C27.9694 68.8681 18.2175 59.1162 18.2175 47.0796C18.2175 43.8331 18.9269 40.7548 20.2136 37.9892C23.6527 30.4979 31.2161 25.3032 40.006 25.3032C52.0307 25.3032 61.7825 35.0551 61.7825 47.0796Z" fill="#AAEAEE"/>
<path d="M51.0927 57.7694C51.0927 61.0282 50.3833 64.1063 49.0966 66.8721C46.3308 68.1586 43.2527 68.8682 40.006 68.8682C27.9694 68.8682 18.2175 59.1163 18.2175 47.0797C18.2175 43.8332 18.9269 40.7549 20.2136 37.9893C22.9792 36.7027 26.0575 35.9932 29.3163 35.9932C41.3408 35.993 51.0927 45.7449 51.0927 57.7694Z" fill="#49D3CC"/>
<path d="M8.5979 47.0795C8.5979 64.3918 22.6874 78.4761 40.0062 78.4761C54.0934 78.4761 66.5359 69.0043 70.2648 55.4428C70.3067 55.2905 70.3182 55.1314 70.2986 54.9747C70.279 54.818 70.2288 54.6667 70.1507 54.5294C70.0726 54.3921 69.9682 54.2715 69.8436 54.1745C69.7189 54.0776 69.5763 54.0062 69.424 53.9643C69.2717 53.9224 69.1127 53.9109 68.9559 53.9305C68.7992 53.95 68.6479 54.0003 68.5106 54.0784C68.3733 54.1564 68.2527 54.2608 68.1557 54.3855C68.0588 54.5102 67.9874 54.6528 67.9456 54.8051C64.5032 67.3264 53.0142 76.0712 40.0062 76.0712C24.0138 76.0712 11.0029 63.0656 11.0029 47.0796C11.0029 30.1464 25.5338 16.7464 42.509 18.2037C57.1954 19.436 68.9973 31.8257 68.9973 47.0796C68.9973 47.4637 68.9856 47.8359 68.9738 48.2075C68.9528 48.8715 69.4735 49.427 70.137 49.4481C70.8438 49.4868 71.3559 48.9484 71.3776 48.285C71.3906 47.8875 71.4023 47.4893 71.4023 47.0796C71.4023 38.4529 67.9035 30.6289 62.2521 24.9484L65.4538 21.7467L67.0435 23.3364C67.5132 23.806 68.2742 23.806 68.7438 23.3364C69.2135 22.8667 69.2135 22.1057 68.7438 21.636L63.8642 16.7564C63.3945 16.2867 62.6335 16.2867 62.1638 16.7564C61.6942 17.226 61.6942 17.987 62.1638 18.4567L63.7535 20.0464L60.4867 23.3132C56.4042 19.7903 51.4113 17.2995 45.9102 16.2482V9.97792H46.7934C49.1243 9.97792 51.0207 8.08198 51.0207 5.7512C51.0207 3.42042 49.1237 1.52417 46.7927 1.52417H33.2076C30.8767 1.52417 28.9802 3.42011 28.9802 5.75089C28.9802 8.08167 30.8767 9.97761 33.2076 9.97761H34.0901V16.2498C19.591 19.0248 8.5979 31.7896 8.5979 47.0795ZM31.3852 5.75105C31.3852 4.74651 32.2026 3.92917 33.2077 3.92917H46.7929C47.7981 3.92917 48.6154 4.74651 48.6154 5.75105C48.6154 6.75558 47.7981 7.57292 46.7929 7.57292H33.2077C32.2024 7.57292 31.3852 6.75558 31.3852 5.75105ZM36.4951 15.8792V9.97776H43.5049V15.8743C41.1968 15.62 38.7393 15.6234 36.4951 15.8792Z" fill="#215250"/>
<path d="M40.0055 24.0959C27.328 24.0959 17.0139 34.4055 17.0139 47.077C17.0139 59.755 27.3281 70.0692 40.0055 70.0692C52.677 70.0692 62.9866 59.755 62.9866 47.077C62.9866 34.4055 52.677 24.0959 40.0055 24.0959ZM40.0055 67.6644C28.6538 67.6644 19.4188 58.4288 19.4188 47.077C19.4188 35.7313 28.6538 26.5009 40.0055 26.5009C51.3513 26.5009 60.5816 35.7313 60.5816 47.077C60.5816 58.4288 51.3513 67.6644 40.0055 67.6644Z" fill="#215250"/>
<path d="M40.0003 33.6164C40.3193 33.6164 40.6251 33.4897 40.8506 33.2642C41.0762 33.0387 41.2028 32.7329 41.2028 32.4139V31.1192C41.2028 30.8003 41.0762 30.4945 40.8506 30.269C40.6251 30.0434 40.3193 29.9167 40.0003 29.9167C39.6814 29.9167 39.3756 30.0434 39.15 30.269C38.9245 30.4945 38.7978 30.8003 38.7978 31.1192V32.4139C38.7978 32.5719 38.8289 32.7282 38.8894 32.8741C38.9498 33.02 39.0384 33.1526 39.15 33.2642C39.2617 33.3759 39.3943 33.4645 39.5402 33.5249C39.6861 33.5853 39.8424 33.6164 40.0003 33.6164ZM40.0003 60.5489C39.6814 60.5489 39.3756 60.6756 39.15 60.9011C38.9245 61.1267 38.7978 61.4325 38.7978 61.7514V63.0455C38.7978 63.3644 38.9245 63.6703 39.15 63.8958C39.3756 64.1213 39.6814 64.248 40.0003 64.248C40.3193 64.248 40.6251 64.1213 40.8506 63.8958C41.0762 63.6703 41.2028 63.3644 41.2028 63.0455V61.7514C41.2028 61.4325 41.0762 61.1267 40.8506 60.9011C40.6251 60.6756 40.3193 60.5489 40.0003 60.5489ZM53.4663 47.0824C53.4663 47.2403 53.4974 47.3967 53.5578 47.5425C53.6182 47.6884 53.7068 47.821 53.8185 47.9327C53.9301 48.0443 54.0627 48.1329 54.2086 48.1933C54.3545 48.2538 54.5109 48.2849 54.6688 48.2849H55.9635C56.2824 48.2849 56.5882 48.1582 56.8138 47.9327C57.0393 47.7072 57.166 47.4013 57.166 47.0824C57.166 46.7635 57.0393 46.4576 56.8138 46.2321C56.5882 46.0066 56.2824 45.8799 55.9635 45.8799H54.6688C54.5109 45.8799 54.3545 45.911 54.2086 45.9714C54.0627 46.0318 53.9301 46.1204 53.8185 46.2321C53.7068 46.3437 53.6182 46.4763 53.5578 46.6222C53.4974 46.7681 53.4663 46.9245 53.4663 47.0824ZM25.3319 45.8799H24.0372C23.7183 45.8799 23.4124 46.0066 23.1869 46.2321C22.9614 46.4576 22.8347 46.7635 22.8347 47.0824C22.8347 47.4013 22.9614 47.7072 23.1869 47.9327C23.4124 48.1582 23.7183 48.2849 24.0372 48.2849H25.3319C25.6508 48.2849 25.9567 48.1582 26.1822 47.9327C26.4077 47.7072 26.5344 47.4013 26.5344 47.0824C26.5344 46.7635 26.4077 46.4576 26.1822 46.2321C25.9567 46.0066 25.6508 45.8799 25.3319 45.8799ZM46.9832 38.9617L39.7127 46.2322C39.243 46.7019 39.243 47.4628 39.7127 47.9325C40.1824 48.4022 40.9433 48.4022 41.413 47.9325L48.6835 40.6621C48.7951 40.5504 48.8837 40.4179 48.9442 40.272C49.0046 40.1262 49.0357 39.9698 49.0357 39.8119C49.0357 39.654 49.0046 39.4977 48.9442 39.3518C48.8837 39.2059 48.7951 39.0734 48.6835 38.9617C48.5719 38.85 48.4393 38.7614 48.2935 38.7009C48.1476 38.6405 47.9912 38.6094 47.8333 38.6094C47.6754 38.6094 47.519 38.6405 47.3732 38.7009C47.2273 38.7614 47.0948 38.85 46.9832 38.9617Z" fill="#215250"/>
</svg>
