<svg width="1536" height="567" viewBox="0 0 1536 567" fill="none" xmlns="http://www.w3.org/2000/svg">
<path d="M633 567H1487.5C1514.01 567 1535.5 545.51 1535.5 519V333.999C1535.5 307.49 1514.01 285.999 1487.5 285.999L1001 286C974.49 286 953 264.51 953 238V48C953 21.4903 931.51 1.33132e-05 905 -7.90955e-06L48 -0.000693995C21.4904 -0.000715217 0 21.4896 0 47.9993V237.999C0 264.509 21.4904 285.999 48 285.999H537C563.51 285.999 585 307.49 585 333.999V519C585 545.51 606.49 567 633 567Z" fill="#49D3CC"/>
</svg>
