<svg width="358" height="218" viewBox="0 0 358 218" fill="none" xmlns="http://www.w3.org/2000/svg">
<path d="M148.392 218H346C352.627 218 358 212.628 358 206V164.582C358 157.954 352.627 152.582 346 152.582L234.191 152.582C227.563 152.582 222.191 147.21 222.191 140.582V12C222.191 5.37258 216.818 -4.29474e-06 210.191 -9.59256e-06L11.9999 -0.000168023C5.37253 -0.000173321 -6.10352e-05 5.37241 -6.10352e-05 11.9998V54.5817C-6.10352e-05 61.2091 5.37253 66.5817 11.9999 66.5817H124.392C131.019 66.5817 136.392 71.9543 136.392 78.5817V206C136.392 212.628 141.765 218 148.392 218Z" fill="#49D3CC"/>
</svg>
