<svg width="48" height="48" viewBox="0 0 48 48" fill="none" xmlns="http://www.w3.org/2000/svg">
<g clip-path="url(#clip0_230_144)">
<path d="M12.0447 2.18593C14.4837 0.280929 19.1727 -0.262071 21.1017 0.109929C23.0337 0.478929 24.0417 1.54993 24.0537 2.85793L24.1647 19.4989C24.1737 20.8069 23.4897 22.0069 22.6437 22.1689C21.7947 22.3279 20.5437 21.5509 19.8537 20.4379L11.0547 6.16693C10.3737 5.05393 8.99967 4.56193 12.0447 2.18593ZM9.12267 33.8359L17.9817 30.7249C19.2147 30.2899 20.3217 29.0809 20.4447 28.0309C20.5647 26.9809 19.6677 25.7329 18.4497 25.2559L9.09267 21.5749C7.87467 21.0949 6.46767 22.2289 6.09867 24.0829C6.09867 24.0829 5.87667 30.5419 6.09867 31.8769C6.32367 33.2149 7.88667 34.2739 9.12267 33.8359ZM24.5757 35.3929C24.5997 34.0819 23.8977 32.9509 23.0097 32.8699C22.1217 32.7889 20.7117 33.5389 19.8687 34.5379L13.6887 41.8939C12.8487 42.8929 13.2657 45.2389 14.4927 45.6859L20.9547 47.9119C22.1847 48.3559 24.3507 47.0419 24.3747 45.7339L24.5757 35.3929ZM39.9327 33.6799L32.1837 31.4689C30.9267 31.1089 29.5017 31.1449 29.0187 31.5499C28.5357 31.9489 28.6557 33.2179 29.2887 34.3639L34.1787 43.2469C34.8087 44.3899 37.3407 44.1949 38.0367 43.0849C38.0367 43.0849 40.9827 38.7709 41.5257 37.1509C42.0687 35.5279 41.1897 34.0369 39.9327 33.6799ZM41.8197 21.1879C41.4717 20.0629 39.0477 16.7509 37.7367 15.6229C36.4257 14.4919 34.9257 14.6329 34.0827 15.6259L29.0877 21.5329C28.2417 22.5259 28.0137 24.1039 28.5777 25.0279C29.1417 25.9549 30.6447 26.4799 31.9227 26.1949L40.5597 24.6049C42.1197 24.2329 42.1767 22.3129 41.8197 21.1879Z" fill="#F44336"/>
</g>
<defs>
<clipPath id="clip0_230_144">
<rect width="48" height="48" fill="white"/>
</clipPath>
</defs>
</svg>
